<svg xmlns="http://www.w3.org/2000/svg" viewBox="0 0 201.9 200.95"><defs><style>.cls-1{fill:#fff;}.cls-2{fill:#3993ff;}</style></defs><title>Asset 1</title><g id="Layer_2" data-name="Layer 2"><g id="MagnifyingGlass"><path class="cls-1" d="M174.59,194.53a20.75,20.75,0,0,1-14.77-6.12l-55.66-55.65a20.88,20.88,0,0,1,29.53-29.53l55.66,55.66a20.88,20.88,0,0,1-14.77,35.65Z"/><path class="cls-2" d="M118.93,103.54a14.37,14.37,0,0,1,10.22,4.23l55.66,55.66a14.46,14.46,0,0,1-20.45,20.44l-55.66-55.66a14.46,14.46,0,0,1,10.22-24.68m0-12.85A27.31,27.31,0,0,0,99.62,137.3L155.28,193a27.31,27.31,0,1,0,38.62-38.62L138.24,98.68a27.23,27.23,0,0,0-19.31-8Z"/><path class="cls-1" d="M79.51,152.6A73.09,73.09,0,1,1,152.6,79.51,73.17,73.17,0,0,1,79.51,152.6Zm0-104.41a31.32,31.32,0,1,0,31.32,31.32A31.36,31.36,0,0,0,79.51,48.19Z"/><path class="cls-2" d="M79.51,12.85A66.66,66.66,0,1,1,12.85,79.51,66.74,66.74,0,0,1,79.51,12.85m0,104.41A37.75,37.75,0,1,0,41.76,79.51a37.79,37.79,0,0,0,37.75,37.75M79.51,0A79.51,79.51,0,1,0,159,79.51,79.6,79.6,0,0,0,79.51,0Zm0,104.41a24.9,24.9,0,1,1,24.9-24.9,24.93,24.93,0,0,1-24.9,24.9Z"/></g></g></svg>