<?xml version="1.0" encoding="utf-8"?>
<!-- Generator: Adobe Illustrator 21.0.0, SVG Export Plug-In . SVG Version: 6.00 Build 0)  -->
<svg version="1.1" xmlns="http://www.w3.org/2000/svg" xmlns:xlink="http://www.w3.org/1999/xlink" x="0px" y="0px"
	 viewBox="0 0 1024 512" style="enable-background:new 0 0 1024 512;" xml:space="preserve">
<style type="text/css">
	.st0{fill:#3993FF;}
	.st1{display:none;fill:none;stroke:#3993FF;stroke-width:54.614;stroke-linecap:round;stroke-miterlimit:10;}
	.st2{fill:#FFFFFF;}
</style>
<g id="Text">
	<g>
		<path class="st0" d="M960.5,333.9v-80.6c0-15.1-8.2-20.8-21.1-20.8c-12.4,0-18.7,6.3-23.3,11.5v90h-54.4V188h54.4v16.6
			c8.5-9.7,24.5-20.2,50.1-20.2c33.8,0,48.6,20.5,48.6,45.9v103.6H960.5z"/>
	</g>
	<g>
		<path class="st0" d="M154.9,333.9L131,252.3l-23.6,81.5H48.3L6,188h55.9l19.3,80.3l25.7-80.3h48.6l25.4,80.3l19.3-80.3h56.2
			l-42.3,145.9H154.9z"/>
		<path class="st0" d="M352.1,333.9V320c-8.2,10.3-26,17.5-44.1,17.5c-21.7,0-50.1-14.8-50.1-48c0-36.2,28.4-46.5,50.1-46.5
			c19,0,36.2,6,44.1,16v-15.1c0-10.3-9.4-18.1-27.2-18.1c-13.6,0-29,5.4-40.5,14.2L266,206.4c19.6-15.7,46.8-22,68.9-22
			c36.2,0,71.6,12.7,71.6,61.3v88.2H352.1z M352.1,294.3v-8.2c-3.6-5.1-13-7.9-21.4-7.9c-9.1,0-19,3-19,12.1s10,11.8,19,11.8
			C339.1,302.2,348.4,299.4,352.1,294.3z"/>
		<path class="st0" d="M447.8,291.6v-56.5h-24.2V188h24.2v-39.9h54.4V188h29.6v47.1h-29.6v40.8c0,7.5,4.8,13.6,12.1,13.6
			c4.8,0,9.7-1.5,10.9-2.7l9.7,41.1c-5.7,5.1-18.4,9.7-36.8,9.7C465.6,337.5,447.8,322.1,447.8,291.6z"/>
		<path class="st0" d="M539.6,315.1l21.7-36.5c11.5,9.1,36.2,18.4,52.5,18.4c11.2,0,14.5-2.7,14.5-6.3c0-13.9-82.7,3.9-82.7-56.5
			c0-26.3,23-49.8,65.2-49.8c24.5,0,46.2,7.5,63.1,18.7L654,238.4c-9.1-7.5-26-15.1-42.9-15.1c-7.9,0-13.6,3-13.6,6.3
			c0,12.1,82.7-3,82.7,57.7c0,29-26,50.1-69.2,50.1C584.3,337.5,555.3,328.1,539.6,315.1z"/>
	</g>
</g>
<g id="MagnifyingGlass">
	<path class="st1" d="M806.5,296.9l55.7,55.7c-28.4,28.4-94.3,94.3-94.3,94.3C761.1,440,577.1,256,577.1,256
		c18.2-18.2,190.8-190.8,190.8-190.8C783.8,81.1,958.7,256,958.7,256c-18.2,18.2-90.9,90.9-90.9,90.9"/>
	<g>
		<path class="st2" d="M862.1,373.4c-5.6,0-10.8-2.2-14.8-6.1l-55.7-55.7c-8.1-8.1-8.1-21.4,0-29.5c3.9-3.9,9.2-6.1,14.8-6.1
			c5.6,0,10.8,2.2,14.8,6.1l55.7,55.7c8.1,8.1,8.1,21.4,0,29.5C873,371.3,867.7,373.4,862.1,373.4z"/>
		<path class="st0" d="M806.5,282.4c3.9,0,7.5,1.5,10.2,4.2l55.7,55.7c5.6,5.6,5.6,14.8,0,20.4c-2.7,2.7-6.4,4.2-10.2,4.2
			c-3.9,0-7.5-1.5-10.2-4.2l-55.7-55.7c-2.7-2.7-4.2-6.4-4.2-10.2c0-3.9,1.5-7.5,4.2-10.2C799,283.9,802.6,282.4,806.5,282.4
			 M806.5,269.6c-7,0-14,2.7-19.3,8c-10.7,10.7-10.7,28,0,38.6l55.7,55.7c5.3,5.3,12.3,8,19.3,8c7,0,14-2.7,19.3-8
			c10.7-10.7,10.7-28,0-38.6l-55.7-55.7C820.5,272.2,813.5,269.6,806.5,269.6L806.5,269.6z"/>
	</g>
	<g>
		<path class="st2" d="M767.1,331.5c-40.3,0-73.1-32.8-73.1-73.1s32.8-73.1,73.1-73.1s73.1,32.8,73.1,73.1S807.4,331.5,767.1,331.5z
			 M767.1,227.1c-17.3,0-31.3,14.1-31.3,31.3s14.1,31.3,31.3,31.3s31.3-14.1,31.3-31.3S784.3,227.1,767.1,227.1z"/>
		<path class="st0" d="M767.1,191.7c36.8,0,66.7,29.9,66.7,66.7s-29.9,66.7-66.7,66.7c-36.8,0-66.7-29.9-66.7-66.7
			S730.3,191.7,767.1,191.7 M767.1,296.2c20.8,0,37.7-16.9,37.7-37.7c0-20.8-16.9-37.7-37.7-37.7s-37.7,16.9-37.7,37.7
			C729.3,279.2,746.3,296.2,767.1,296.2 M767.1,178.9c-43.8,0-79.5,35.7-79.5,79.5c0,43.8,35.7,79.5,79.5,79.5
			c43.8,0,79.5-35.7,79.5-79.5C846.6,214.6,810.9,178.9,767.1,178.9L767.1,178.9z M767.1,283.3c-13.7,0-24.9-11.2-24.9-24.9
			c0-13.7,11.2-24.9,24.9-24.9c13.7,0,24.9,11.2,24.9,24.9C792,272.1,780.8,283.3,767.1,283.3L767.1,283.3z"/>
	</g>
</g>
</svg>
